<svg version="1.1" id="Layer_1" xmlns="http://www.w3.org/2000/svg" xmlns:xlink="http://www.w3.org/1999/xlink" x="0px" y="0px"
	 width="100%" viewBox="180 0 1254 1254" enable-background="new 0 0 1254 1254" xml:space="preserve">
<path fill="transparent" opacity="1.000000" stroke="none" 
	d="
M822.000000,1255.000000 
	C548.000000,1255.000000 274.500000,1255.000000 1.000000,1255.000000 
	C1.000000,837.000000 1.000000,419.000000 1.000000,1.000000 
	C419.000000,1.000000 837.000000,1.000000 1255.000000,1.000000 
	C1255.000000,419.000000 1255.000000,837.000000 1255.000000,1255.000000 
	C1110.833374,1255.000000 966.666687,1255.000000 822.000000,1255.000000 
M896.363647,987.966980 
	C897.342651,987.068115 898.287781,986.128845 899.305725,985.276611 
	C911.328125,975.212524 923.883423,965.713196 935.248718,954.955994 
	C947.244141,943.602234 958.487610,931.383789 969.349854,918.924377 
	C978.741882,908.151184 987.691345,896.895020 995.853760,885.168396 
	C1010.107666,864.690674 1022.740173,843.225525 1033.275269,820.512634 
	C1041.800781,802.132202 1049.205811,783.397766 1055.494385,764.137329 
	C1067.028076,728.811279 1073.866577,692.516785 1075.654907,655.576660 
	C1076.963013,628.556091 1077.554443,601.297119 1073.021240,574.333923 
	C1070.254395,557.876404 1068.542847,541.184387 1064.782349,524.962769 
	C1057.039429,491.562744 1045.494507,459.380676 1030.171143,428.660706 
	C1019.153809,406.573669 1006.893677,385.141174 991.850403,365.539917 
	C979.937439,350.017456 967.647095,334.698120 954.439575,320.282379 
	C943.406189,308.239624 931.164978,297.215332 918.781921,286.523804 
	C907.865173,277.098328 896.202759,268.495636 884.530884,259.994598 
	C864.167114,245.162857 842.417480,232.551865 819.459839,222.228149 
	C803.969788,215.262466 788.232483,208.691025 772.190613,203.144058 
	C747.494141,194.604507 722.221313,188.033539 696.161377,184.967651 
	C682.403687,183.349075 668.673828,180.476257 654.897400,180.250824 
	C627.970825,179.810196 600.938232,178.497986 574.142700,182.984268 
	C557.683777,185.739944 541.003479,187.501541 524.776306,191.243622 
	C491.680908,198.875610 459.810211,210.395493 429.343353,225.423477 
	C416.231201,231.891113 403.691528,239.559921 391.099945,247.033676 
	C366.559509,261.599762 344.089783,279.038818 323.256287,298.435028 
	C303.837738,316.513885 285.924042,336.046478 269.992828,357.384125 
	C251.898331,381.619080 236.153229,407.210419 223.078796,434.475555 
	C213.065643,455.356781 204.268921,476.781769 198.239410,499.091095 
	C192.864319,518.979126 188.877258,539.281616 185.147049,559.561096 
	C182.645721,573.159729 180.657227,587.007141 180.238998,600.797791 
	C179.635803,620.686768 180.137009,640.652893 181.176514,660.533325 
	C181.924026,674.828857 184.100052,689.068054 186.031006,703.279114 
	C189.054657,725.531799 194.894333,747.140259 201.845474,768.451904 
	C211.740173,798.788208 224.859604,827.662170 240.979050,855.216858 
	C257.273743,883.071045 276.295471,908.931519 298.226379,932.517090 
	C316.290619,951.944153 335.815063,969.860840 357.158813,985.800476 
	C385.171234,1006.720276 414.895294,1024.528564 446.959564,1038.522705 
	C473.239502,1049.992310 500.274811,1058.805542 528.245117,1065.269653 
	C552.102234,1070.783203 576.203003,1074.724854 600.495483,1075.661743 
	C627.545044,1076.704956 654.778687,1077.526123 681.741394,1073.017090 
	C698.201416,1070.264404 714.888306,1068.530151 731.113525,1064.781250 
	C764.364258,1057.098633 796.343750,1045.456299 826.998291,1030.411377 
	C837.530884,1025.242065 847.921753,1019.658569 857.864014,1013.443176 
	C870.723145,1005.404114 883.067993,996.542480 896.363647,987.966980 
z"/>
<path fill="#F7F4F1" opacity="1.000000" stroke="none" 
	d="
M895.998962,988.000977 
	C883.067993,996.542480 870.723145,1005.404114 857.864014,1013.443176 
	C847.921753,1019.658569 837.530884,1025.242065 826.998291,1030.411377 
	C796.343750,1045.456299 764.364258,1057.098633 731.113525,1064.781250 
	C714.888306,1068.530151 698.201416,1070.264404 681.741394,1073.017090 
	C654.778687,1077.526123 627.545044,1076.704956 600.495483,1075.661743 
	C576.203003,1074.724854 552.102234,1070.783203 528.245117,1065.269653 
	C500.274811,1058.805542 473.239502,1049.992310 446.959564,1038.522705 
	C414.895294,1024.528564 385.171234,1006.720276 357.158813,985.800476 
	C335.815063,969.860840 316.290619,951.944153 298.226379,932.517090 
	C276.295471,908.931519 257.273743,883.071045 240.979050,855.216858 
	C224.859604,827.662170 211.740173,798.788208 201.845474,768.451904 
	C194.894333,747.140259 189.054657,725.531799 186.031006,703.279114 
	C184.100052,689.068054 181.924026,674.828857 181.176514,660.533325 
	C180.137009,640.652893 179.635803,620.686768 180.238998,600.797791 
	C180.657227,587.007141 182.645721,573.159729 185.147049,559.561096 
	C188.877258,539.281616 192.864319,518.979126 198.239410,499.091095 
	C204.268921,476.781769 213.065643,455.356781 223.078796,434.475555 
	C236.153229,407.210419 251.898331,381.619080 269.992828,357.384125 
	C285.924042,336.046478 303.837738,316.513885 323.256287,298.435028 
	C344.089783,279.038818 366.559509,261.599762 391.099945,247.033676 
	C403.691528,239.559921 416.231201,231.891113 429.343353,225.423477 
	C459.810211,210.395493 491.680908,198.875610 524.776306,191.243622 
	C541.003479,187.501541 557.683777,185.739944 574.142700,182.984268 
	C600.938232,178.497986 627.970825,179.810196 654.897400,180.250824 
	C668.673828,180.476257 682.403687,183.349075 696.161377,184.967651 
	C722.221313,188.033539 747.494141,194.604507 772.190613,203.144058 
	C788.232483,208.691025 803.969788,215.262466 819.459839,222.228149 
	C842.417480,232.551865 864.167114,245.162857 884.530884,259.994598 
	C896.202759,268.495636 907.865173,277.098328 918.781921,286.523804 
	C931.164978,297.215332 943.406189,308.239624 954.439575,320.282379 
	C967.647095,334.698120 979.937439,350.017456 991.850403,365.539917 
	C1006.893677,385.141174 1019.153809,406.573669 1030.171143,428.660706 
	C1045.494507,459.380676 1057.039429,491.562744 1064.782349,524.962769 
	C1068.542847,541.184387 1070.254395,557.876404 1073.021240,574.333923 
	C1077.554443,601.297119 1076.963013,628.556091 1075.654907,655.576660 
	C1073.866577,692.516785 1067.028076,728.811279 1055.494385,764.137329 
	C1049.205811,783.397766 1041.800781,802.132202 1033.275269,820.512634 
	C1022.740173,843.225525 1010.107666,864.690674 995.853760,885.168396 
	C987.691345,896.895020 978.741882,908.151184 969.349854,918.924377 
	C958.487610,931.383789 947.244141,943.602234 935.248718,954.955994 
	C923.883423,965.713196 911.328125,975.212524 899.305725,985.276611 
	C898.287781,986.128845 897.342651,987.068115 895.998962,988.000977 
M530.770752,721.086792 
	C531.855591,721.024963 532.940430,720.963074 534.950989,721.034119 
	C542.956970,720.989990 550.963013,720.945801 559.880737,721.078369 
	C563.595459,721.019958 567.310242,720.961609 571.950745,721.036438 
	C587.288696,720.986023 602.626709,720.935608 618.885315,721.056030 
	C623.265320,721.004578 627.645264,720.953064 632.950378,721.039795 
	C642.623169,720.993530 652.296021,720.947266 662.768555,721.077759 
	C663.854187,721.018860 664.939758,720.959961 666.951172,721.033630 
	C674.623718,720.989380 682.296265,720.945190 690.887756,721.078125 
	C695.265686,721.024658 699.643677,720.971130 704.948120,721.048279 
	C715.621704,720.999207 726.295227,720.950134 737.722961,721.077393 
	C738.490417,721.018616 739.257935,720.959839 740.949707,721.033508 
	C746.624268,720.994873 752.298828,720.956238 758.840271,721.100281 
	C760.900696,721.039429 762.961182,720.978577 765.936829,721.047974 
	C769.949768,721.006836 773.962646,720.965759 778.893860,721.102051 
	C783.270508,721.037109 787.647156,720.972168 792.948486,721.049744 
	C805.952148,720.988647 818.955811,720.927612 832.768005,721.008484 
	C846.501160,719.444946 857.923889,709.381287 861.081726,696.063599 
	C863.215454,687.064941 861.564575,684.969727 852.321716,684.965210 
	C780.503052,684.930359 708.684326,684.871521 636.865662,684.869934 
	C558.714905,684.868164 480.564117,684.915161 402.413361,684.957397 
	C396.147491,684.960754 394.437439,686.861145 394.835083,693.106445 
	C395.748138,707.446838 410.607758,721.106873 425.954407,721.020142 
	C449.959229,720.980469 473.964081,720.940735 498.860809,721.077942 
	C501.581970,721.020569 504.303101,720.963196 507.950531,721.034851 
	C515.290833,720.993408 522.631165,720.951965 530.770752,721.086792 
M702.742859,672.918701 
	C734.361511,665.669861 765.974121,658.394409 797.603088,651.191040 
	C805.453430,649.403259 809.004395,644.788696 809.005615,635.727295 
	C809.014404,570.742676 809.008850,505.758026 809.001465,440.773407 
	C809.000671,433.700287 808.964417,433.636780 802.241638,435.487274 
	C748.293579,450.336731 694.356079,465.224579 640.399536,480.043182 
	C637.600037,480.812012 636.386475,481.972504 636.391846,485.172516 
	C636.483337,539.987732 636.406555,594.803162 636.437378,649.618530 
	C636.441528,657.081848 636.824524,664.544922 637.048889,672.543091 
	C637.355957,672.652466 637.663025,672.761841 638.879272,673.034790 
	C642.263367,672.979614 645.647461,672.924377 649.958374,672.985474 
	C667.289734,672.938354 684.621155,672.891235 702.742859,672.918701 
M502.240143,733.955688 
	C491.989868,735.466370 484.889404,740.999756 481.153748,750.675720 
	C464.343262,794.217407 447.672424,837.813354 430.738434,881.306885 
	C420.223511,908.313599 438.927063,939.674561 469.600677,940.787659 
	C497.040161,941.783447 524.547729,940.902039 552.497559,940.970459 
	C552.497559,940.970459 552.971924,940.857544 553.901245,941.014160 
	C581.609253,940.959106 609.317261,940.903992 637.497559,940.970459 
	C637.497559,940.970459 637.971924,940.857544 638.901245,941.014160 
	C688.206177,941.020386 737.511169,941.089172 786.815918,941.008057 
	C813.780212,940.963745 834.716431,916.353638 829.983032,889.893738 
	C828.723633,882.853760 825.841187,876.048157 823.241882,869.313232 
	C807.881348,829.513489 792.396606,789.761658 776.924622,750.004944 
	C773.369385,740.869507 766.601501,735.675232 756.502441,733.971313 
	C756.502441,733.971313 756.018250,734.066162 755.358276,733.848083 
	C754.904236,733.902588 754.450195,733.957092 753.072266,733.843384 
	C689.850037,733.819824 626.627808,733.769409 563.405579,733.788391 
	C543.280884,733.794434 523.156128,733.984436 502.240143,733.955688 
M577.466064,468.835052 
	C536.144287,457.495331 494.822479,446.155609 453.243774,434.745361 
	C453.107513,436.232819 452.967346,437.049286 452.967224,437.865784 
	C452.957123,504.524170 452.934753,571.182556 452.989716,637.840942 
	C452.995972,645.441406 456.760864,649.358337 464.561554,651.092834 
	C483.505707,655.304993 502.371063,659.888123 521.368713,663.838318 
	C538.364868,667.372253 554.932861,673.222534 572.754578,672.436462 
	C586.559265,671.827637 600.412231,672.312866 614.243713,672.311829 
	C617.355408,672.311584 620.467102,672.311829 623.748901,672.311829 
	C623.904785,670.802795 624.058777,670.003479 624.059692,669.204102 
	C624.129700,607.877869 624.175537,546.551575 624.285400,485.225403 
	C624.290527,482.374115 623.248169,481.314301 620.439819,480.580414 
	C606.339233,476.895721 592.320862,472.896545 577.466064,468.835052 
M833.368408,394.869598 
	C841.630798,383.426575 849.888000,371.979767 858.157227,360.541656 
	C865.184326,350.821594 864.145325,347.916107 852.543457,345.376984 
	C806.739929,335.352600 760.932678,325.344574 715.116455,315.378448 
	C705.970581,313.389038 698.441101,315.270355 692.118713,323.121796 
	C675.735901,343.467010 658.795471,363.362946 642.131104,383.482483 
	C641.047729,384.790497 640.416870,386.473297 639.177612,388.695099 
	C649.600586,391.014069 659.243774,393.121216 668.868958,395.307556 
	C714.219910,405.608795 759.580505,415.869110 804.886169,426.366028 
	C808.504456,427.204315 810.337891,426.447388 812.353577,423.623993 
	C819.112305,414.156799 826.093018,404.848145 833.368408,394.869598 
M522.938171,321.261627 
	C503.171265,325.522247 483.396881,329.748474 463.639618,334.053284 
	C444.197693,338.289368 424.761871,342.555023 405.347015,346.912903 
	C398.471405,348.456207 397.162262,352.194397 401.179138,358.073975 
	C401.927582,359.169464 402.694611,360.253143 403.481201,361.321533 
	C418.406769,381.594635 433.447968,401.784485 448.146973,422.220520 
	C450.387085,425.334930 452.134064,427.050873 456.092987,426.115112 
	C469.636108,422.914001 483.231079,419.932739 496.795959,416.822754 
	C525.524658,410.236237 554.245544,403.615601 582.972351,397.020844 
	C595.329102,394.184143 607.692749,391.377136 620.950073,388.351990 
	C619.379150,385.949249 618.286682,383.990143 616.916748,382.249451 
	C614.766907,379.517853 612.414307,376.946686 610.174561,374.284882 
	C596.166809,357.637329 581.729614,341.324554 568.351257,324.185394 
	C561.822449,315.821320 554.455322,314.432587 545.130798,316.556610 
	C538.033997,318.173187 530.878052,319.529907 522.938171,321.261627 
z"/>
<path fill="#245534" opacity="1.000000" stroke="none" 
	d="
M552.025269,940.848938 
	C524.547729,940.902039 497.040161,941.783447 469.600677,940.787659 
	C438.927063,939.674561 420.223511,908.313599 430.738434,881.306885 
	C447.672424,837.813354 464.343262,794.217407 481.153748,750.675720 
	C484.889404,740.999756 491.989868,735.466370 502.946533,734.293823 
	C504.801941,734.747437 505.950958,734.963806 507.100037,734.964050 
	C587.834045,734.983826 668.568054,734.991821 749.302063,734.949402 
	C750.866882,734.948608 752.431458,734.337830 753.996155,734.011597 
	C754.450195,733.957092 754.904236,733.902588 755.770386,734.110962 
	C756.445251,734.291504 756.708008,734.209106 756.970703,734.126709 
	C766.601501,735.675232 773.369385,740.869507 776.924622,750.004944 
	C792.396606,789.761658 807.881348,829.513489 823.241882,869.313232 
	C825.841187,876.048157 828.723633,882.853760 829.983032,889.893738 
	C834.716431,916.353638 813.780212,940.963745 786.815918,941.008057 
	C737.511169,941.089172 688.206177,941.020386 638.348267,940.794189 
	C637.464172,940.377563 637.207458,940.469116 637.025269,940.848938 
	C609.317261,940.903992 581.609253,940.959106 553.348267,940.794189 
	C552.464172,940.377502 552.207458,940.469055 552.025269,940.848938 
M653.092102,916.731262 
	C695.244934,902.981018 719.202759,861.080872 708.834534,819.242554 
	C695.756531,766.469543 638.222839,740.205322 591.315063,765.594727 
	C559.042786,783.062500 541.023987,821.763916 549.435120,855.545837 
	C561.308716,903.234009 604.365479,928.940552 653.092102,916.731262 
z"/>
<path fill="#245533" opacity="1.000000" stroke="none" 
	d="
M637.032104,672.008118 
	C636.824524,664.544922 636.441528,657.081848 636.437378,649.618530 
	C636.406555,594.803162 636.483337,539.987732 636.391846,485.172516 
	C636.386475,481.972504 637.600037,480.812012 640.399536,480.043182 
	C694.356079,465.224579 748.293579,450.336731 802.241638,435.487274 
	C808.964417,433.636780 809.000671,433.700287 809.001465,440.773407 
	C809.008850,505.758026 809.014404,570.742676 809.005615,635.727295 
	C809.004395,644.788696 805.453430,649.403259 797.603088,651.191040 
	C765.974121,658.394409 734.361511,665.669861 702.029053,672.623169 
	C684.471252,672.238586 667.627319,672.141296 650.783264,672.094849 
	C650.200134,672.093201 649.615479,672.599609 649.031555,672.869202 
	C645.647461,672.924377 642.263367,672.979614 638.323425,672.757080 
	C637.566956,672.252930 637.321777,672.095825 637.032104,672.008118 
z"/>
<path fill="#8BA767" opacity="1.000000" stroke="none" 
	d="
M577.869873,468.921448 
	C592.320862,472.896545 606.339233,476.895721 620.439819,480.580414 
	C623.248169,481.314301 624.290527,482.374115 624.285400,485.225403 
	C624.175537,546.551575 624.129700,607.877869 624.059692,669.204102 
	C624.058777,670.003479 623.904785,670.802795 623.748901,672.311829 
	C620.467102,672.311829 617.355408,672.311584 614.243713,672.311829 
	C600.412231,672.312866 586.559265,671.827637 572.754578,672.436462 
	C554.932861,673.222534 538.364868,667.372253 521.368713,663.838318 
	C502.371063,659.888123 483.505707,655.304993 464.561554,651.092834 
	C456.760864,649.358337 452.995972,645.441406 452.989716,637.840942 
	C452.934753,571.182556 452.957123,504.524170 452.967224,437.865784 
	C452.967346,437.049286 453.107513,436.232819 453.243774,434.745361 
	C494.822479,446.155609 536.144287,457.495331 577.869873,468.921448 
z"/>
<path fill="#245533" opacity="1.000000" stroke="none" 
	d="
M792.023804,720.907227 
	C787.647156,720.972168 783.270508,721.037109 778.134094,720.736877 
	C773.256775,720.553650 769.139160,720.735657 765.021606,720.917664 
	C762.961182,720.978577 760.900696,721.039429 758.098877,720.734131 
	C751.580139,720.545593 745.802734,720.723328 740.025391,720.901001 
	C739.257935,720.959839 738.490417,721.018616 737.035034,720.718079 
	C728.287048,720.241638 720.226929,720.039795 712.167175,720.054504 
	C709.451477,720.059448 706.736755,720.614197 704.021606,720.917664 
	C699.643677,720.971130 695.265686,721.024658 690.117554,720.718262 
	C681.573364,720.539246 673.799377,720.720093 666.025391,720.901001 
	C664.939758,720.959961 663.854187,721.018860 662.057800,720.718262 
	C655.603394,720.241821 649.858032,719.984558 644.116760,720.055908 
	C640.083374,720.106079 636.055542,720.603760 632.025269,720.901611 
	C627.645264,720.953064 623.265320,721.004578 618.112183,720.702637 
	C602.478333,720.252258 587.617798,720.145630 572.756958,720.094421 
	C572.180542,720.092407 571.602356,720.621582 571.024963,720.903198 
	C567.310242,720.961609 563.595459,721.019958 559.114014,720.718689 
	C550.239990,720.539734 542.132629,720.720459 534.025269,720.901184 
	C532.940430,720.963074 531.855591,721.024963 530.061523,720.725403 
	C521.909668,720.544617 514.466980,720.725220 507.024261,720.905823 
	C504.303101,720.963196 501.581970,721.020569 498.104065,720.718140 
	C496.700989,720.243347 496.054657,720.028320 495.408203,720.027832 
	C473.032318,720.012024 450.656372,720.004578 428.280609,720.053894 
	C427.197296,720.056274 426.115143,720.583313 425.032440,720.866028 
	C410.607758,721.106873 395.748138,707.446838 394.835083,693.106445 
	C394.437439,686.861145 396.147491,684.960754 402.413361,684.957397 
	C480.564117,684.915161 558.714905,684.868164 636.865662,684.869934 
	C708.684326,684.871521 780.503052,684.930359 852.321716,684.965210 
	C861.564575,684.969727 863.215454,687.064941 861.081726,696.063599 
	C857.923889,709.381287 846.501160,719.444946 832.048157,720.674072 
	C818.801514,720.244629 806.274841,720.138245 793.747864,720.091370 
	C793.174194,720.089233 792.598511,720.623047 792.023804,720.907227 
z"/>
<path fill="#245534" opacity="1.000000" stroke="none" 
	d="
M833.178589,395.174194 
	C826.093018,404.848145 819.112305,414.156799 812.353577,423.623993 
	C810.337891,426.447388 808.504456,427.204315 804.886169,426.366028 
	C759.580505,415.869110 714.219910,405.608795 668.868958,395.307556 
	C659.243774,393.121216 649.600586,391.014069 639.177612,388.695099 
	C640.416870,386.473297 641.047729,384.790497 642.131104,383.482483 
	C658.795471,363.362946 675.735901,343.467010 692.118713,323.121796 
	C698.441101,315.270355 705.970581,313.389038 715.116455,315.378448 
	C760.932678,325.344574 806.739929,335.352600 852.543457,345.376984 
	C864.145325,347.916107 865.184326,350.821594 858.157227,360.541656 
	C849.888000,371.979767 841.630798,383.426575 833.178589,395.174194 
z"/>
<path fill="#8BA767" opacity="1.000000" stroke="none" 
	d="
M523.343262,321.131927 
	C530.878052,319.529907 538.033997,318.173187 545.130798,316.556610 
	C554.455322,314.432587 561.822449,315.821320 568.351257,324.185394 
	C581.729614,341.324554 596.166809,357.637329 610.174561,374.284882 
	C612.414307,376.946686 614.766907,379.517853 616.916748,382.249451 
	C618.286682,383.990143 619.379150,385.949249 620.950073,388.351990 
	C607.692749,391.377136 595.329102,394.184143 582.972351,397.020844 
	C554.245544,403.615601 525.524658,410.236237 496.795959,416.822754 
	C483.231079,419.932739 469.636108,422.914001 456.092987,426.115112 
	C452.134064,427.050873 450.387085,425.334930 448.146973,422.220520 
	C433.447968,401.784485 418.406769,381.594635 403.481201,361.321533 
	C402.694611,360.253143 401.927582,359.169464 401.179138,358.073975 
	C397.162262,352.194397 398.471405,348.456207 405.347015,346.912903 
	C424.761871,342.555023 444.197693,338.289368 463.639618,334.053284 
	C483.396881,329.748474 503.171265,325.522247 523.343262,321.131927 
z"/>
<path fill="#0B3F1B" opacity="1.000000" stroke="none" 
	d="
M753.534180,733.927490 
	C752.431458,734.337830 750.866882,734.948608 749.302063,734.949402 
	C668.568054,734.991821 587.834045,734.983826 507.100037,734.964050 
	C505.950958,734.963806 504.801941,734.747437 503.342163,734.361084 
	C523.156128,733.984436 543.280884,733.794434 563.405579,733.788391 
	C626.627808,733.769409 689.850037,733.819824 753.534180,733.927490 
z"/>
<path fill="#114020" opacity="1.000000" stroke="none" 
	d="
M425.493408,720.943115 
	C426.115143,720.583313 427.197296,720.056274 428.280609,720.053894 
	C450.656372,720.004578 473.032318,720.012024 495.408203,720.027832 
	C496.054657,720.028320 496.700989,720.243347 497.658142,720.629639 
	C473.964081,720.940735 449.959229,720.980469 425.493408,720.943115 
z"/>
<path fill="#10401F" opacity="1.000000" stroke="none" 
	d="
M649.494995,672.927368 
	C649.615479,672.599609 650.200134,672.093201 650.783264,672.094849 
	C667.627319,672.141296 684.471252,672.238586 701.633850,672.585938 
	C684.621155,672.891235 667.289734,672.938354 649.494995,672.927368 
z"/>
<path fill="#114020" opacity="1.000000" stroke="none" 
	d="
M571.487854,720.969849 
	C571.602356,720.621582 572.180542,720.092407 572.756958,720.094421 
	C587.617798,720.145630 602.478333,720.252258 617.651855,720.617249 
	C602.626709,720.935608 587.288696,720.986023 571.487854,720.969849 
z"/>
<path fill="#114020" opacity="1.000000" stroke="none" 
	d="
M792.486145,720.978516 
	C792.598511,720.623047 793.174194,720.089233 793.747864,720.091370 
	C806.274841,720.138245 818.801514,720.244629 831.643921,720.603149 
	C818.955811,720.927612 805.952148,720.988647 792.486145,720.978516 
z"/>
<path fill="#114020" opacity="1.000000" stroke="none" 
	d="
M704.484863,720.982971 
	C706.736755,720.614197 709.451477,720.059448 712.167175,720.054504 
	C720.226929,720.039795 728.287048,720.241638 736.657959,720.629883 
	C726.295227,720.950134 715.621704,720.999207 704.484863,720.982971 
z"/>
<path fill="#114020" opacity="1.000000" stroke="none" 
	d="
M632.487793,720.970703 
	C636.055542,720.603760 640.083374,720.106079 644.116760,720.055908 
	C649.858032,719.984558 655.603394,720.241821 661.657959,720.629883 
	C652.296021,720.947266 642.623169,720.993530 632.487793,720.970703 
z"/>
<path fill="#114020" opacity="1.000000" stroke="none" 
	d="
M534.488159,720.967651 
	C542.132629,720.720459 550.239990,720.539734 558.658203,720.630310 
	C550.963013,720.945801 542.956970,720.989990 534.488159,720.967651 
z"/>
<path fill="#114020" opacity="1.000000" stroke="none" 
	d="
M666.488281,720.967285 
	C673.799377,720.720093 681.573364,720.539246 689.658081,720.629639 
	C682.296265,720.945190 674.623718,720.989380 666.488281,720.967285 
z"/>
<path fill="#114020" opacity="1.000000" stroke="none" 
	d="
M507.487396,720.970337 
	C514.466980,720.725220 521.909668,720.544617 529.661926,720.637268 
	C522.631165,720.951965 515.290833,720.993408 507.487396,720.970337 
z"/>
<path fill="#114020" opacity="1.000000" stroke="none" 
	d="
M740.487549,720.967285 
	C745.802734,720.723328 751.580139,720.545593 757.665405,720.642761 
	C752.298828,720.956238 746.624268,720.994873 740.487549,720.967285 
z"/>
<path fill="#114020" opacity="1.000000" stroke="none" 
	d="
M765.479248,720.982788 
	C769.139160,720.735657 773.256775,720.553650 777.674927,720.648193 
	C773.962646,720.965759 769.949768,721.006836 765.479248,720.982788 
z"/>
<path fill="#0B3F1B" opacity="1.000000" stroke="none" 
	d="
M756.736572,734.049011 
	C756.708008,734.209106 756.445251,734.291504 756.100403,734.220032 
	C756.018250,734.066162 756.502441,733.971313 756.736572,734.049011 
z"/>
<path fill="#10401F" opacity="1.000000" stroke="none" 
	d="
M637.040527,672.275635 
	C637.321777,672.095825 637.566956,672.252930 637.868835,672.675354 
	C637.663025,672.761841 637.355957,672.652466 637.040527,672.275635 
z"/>
<path fill="#184827" opacity="1.000000" stroke="none" 
	d="
M552.261414,940.909668 
	C552.207458,940.469055 552.464172,940.377502 552.883667,940.715881 
	C552.971924,940.857544 552.497559,940.970459 552.261414,940.909668 
z"/>
<path fill="#184827" opacity="1.000000" stroke="none" 
	d="
M637.261414,940.909668 
	C637.207458,940.469116 637.464172,940.377563 637.883606,940.715942 
	C637.971924,940.857544 637.497559,940.970459 637.261414,940.909668 
z"/>
<path fill="#F6F3F0" opacity="1.000000" stroke="none" 
	d="
M652.706970,916.852173 
	C604.365479,928.940552 561.308716,903.234009 549.435120,855.545837 
	C541.023987,821.763916 559.042786,783.062500 591.315063,765.594727 
	C638.222839,740.205322 695.756531,766.469543 708.834534,819.242554 
	C719.202759,861.080872 695.244934,902.981018 652.706970,916.852173 
M656.287903,809.816528 
	C658.309814,805.994690 660.300232,802.155762 662.365295,798.357361 
	C663.616638,796.055603 664.846497,793.652405 662.098267,791.735718 
	C659.175354,789.697327 657.246399,791.770752 655.336853,793.828308 
	C648.428284,801.272461 641.403748,808.609314 634.530945,816.085876 
	C632.321289,818.489624 630.073059,819.895142 626.569702,820.287354 
	C616.456055,821.419556 609.326050,831.003967 610.624939,840.901367 
	C612.007935,851.439697 621.502441,858.818054 631.900513,857.434998 
	C641.857544,856.110535 650.173584,846.498413 647.677429,836.898987 
	C645.863525,829.923401 648.350220,825.144775 651.175232,819.796936 
	C652.806335,816.709351 654.382019,813.592468 656.287903,809.816528 
z"/>
<path fill="#275736" opacity="1.000000" stroke="none" 
	d="
M656.135254,810.152710 
	C654.382019,813.592468 652.806335,816.709351 651.175232,819.796936 
	C648.350220,825.144775 645.863525,829.923401 647.677429,836.898987 
	C650.173584,846.498413 641.857544,856.110535 631.900513,857.434998 
	C621.502441,858.818054 612.007935,851.439697 610.624939,840.901367 
	C609.326050,831.003967 616.456055,821.419556 626.569702,820.287354 
	C630.073059,819.895142 632.321289,818.489624 634.530945,816.085876 
	C641.403748,808.609314 648.428284,801.272461 655.336853,793.828308 
	C657.246399,791.770752 659.175354,789.697327 662.098267,791.735718 
	C664.846497,793.652405 663.616638,796.055603 662.365295,798.357361 
	C660.300232,802.155762 658.309814,805.994690 656.135254,810.152710 
z"/>
</svg>